<svg version="1.1" viewBox="0.0 0.0 960.0 540.0" fill="none" stroke="none" stroke-linecap="square" stroke-miterlimit="10" xmlns:xlink="http://www.w3.org/1999/xlink" xmlns="http://www.w3.org/2000/svg"><clipPath id="g220cc843d0e_0_29.0"><path d="m0 0l960.0 0l0 540.0l-960.0 0l0 -540.0z" clip-rule="nonzero"/></clipPath><g clip-path="url(#g220cc843d0e_0_29.0)"><path fill="#ffffff" d="m0 0l960.0 0l0 540.0l-960.0 0z" fill-rule="evenodd"/><path fill="#ea9999" d="m242.12335 272.41733l0 0c0 -132.82666 107.22604 -240.50394 239.49606 -240.50394l0 0c63.51834 0 124.43509 25.338736 169.34927 70.44197c44.914246 45.10325 70.14679 106.27636 70.14679 170.06198l0 0c0 132.82666 -107.22601 240.50394 -239.49606 240.50394l0 0c-132.27002 0 -239.49606 -107.67728 -239.49606 -240.50394zm29.989716 0l0 0c0 116.263794 93.799194 210.51422 209.50635 210.51422c115.707184 0 209.50638 -94.25043 209.50638 -210.51422l0 0c0 -116.26381 -93.799194 -210.51425 -209.50638 -210.51425l0 0c-115.70715 0 -209.50635 94.250435 -209.50635 210.51425z" fill-rule="evenodd"/><path fill="#ea9999" d="m599.3753 414.92126l0 0c0 -53.01935 -50.482544 -96.0 -112.75589 -96.0c-62.273346 0 -112.75589 42.98065 -112.75589 96.0l0 0c22.987396 -34.600433 66.06546 -55.992004 112.75589 -55.992004c46.69046 0 89.768524 21.391571 112.75589 55.992004z" fill-rule="evenodd"/><path fill="#ea9999" d="m362.55643 200.48819l0 0c0 -17.812271 14.326904 -32.25197 32.0 -32.25197l0 0c8.486938 0 16.626251 3.3979645 22.62741 9.446381c6.0011597 6.048416 9.372589 14.251831 9.372589 22.805588l0 0c0 17.812271 -14.326874 32.25197 -32.0 32.25197l0 0c-17.673096 0 -32.0 -14.439697 -32.0 -32.25197z" fill-rule="evenodd"/><path fill="#ea9999" d="m539.55646 200.48819l0 0c0 -17.812271 14.326843 -32.25197 32.0 -32.25197l0 0c8.486877 0 16.62622 3.3979645 22.62738 9.446381c6.0011597 6.048416 9.37262 14.251831 9.37262 22.805588l0 0c0 17.812271 -14.326904 32.25197 -32.0 32.25197l0 0c-17.673157 0 -32.0 -14.439697 -32.0 -32.25197z" fill-rule="evenodd"/></g></svg>